<svg width="128" height="32" viewBox="0 0 128 32" fill="none" xmlns="http://www.w3.org/2000/svg">
<path d="M5.84301 0C2.60624 0 0 2.60624 0 5.84301V26.157C0 29.3938 2.60624 32 5.84301 32H16.853V19.49H13.545V14.986H16.853V11.138C16.853 8.11482 18.8076 5.33901 23.31 5.33901C25.133 5.33901 26.481 5.51402 26.481 5.51402L26.375 9.72003C26.375 9.72003 25.0002 9.70704 23.5 9.70704C21.8764 9.70704 21.616 10.4551 21.616 11.6971V14.986H26.504L26.291 19.49H21.616V32.0001H26.157C29.3938 32.0001 32 29.3938 32 26.1571V5.84304C32 2.60627 29.3938 3.2e-05 26.157 3.2e-05L5.84301 0Z" fill="#4267B2"/>
<path d="M111.996 10.6644C109.058 10.6644 106.66 13.062 106.66 16C106.66 18.938 109.058 21.3356 111.996 21.3356C114.934 21.3356 117.331 18.938 117.331 16C117.331 13.062 114.934 10.6644 111.996 10.6644ZM127.998 16C127.998 13.7905 128.018 11.601 127.894 9.39554C127.77 6.83381 127.186 4.56027 125.312 2.68701C123.435 0.809737 121.166 0.229345 118.604 0.105261C116.395 -0.018823 114.205 0.00119058 112 0.00119058C109.79 0.00119058 107.601 -0.018823 105.395 0.105261C102.834 0.229345 100.56 0.813739 98.687 2.68701C96.8097 4.56427 96.2293 6.83381 96.1053 9.39554C95.9812 11.605 96.0012 13.7945 96.0012 16C96.0012 18.2055 95.9812 20.399 96.1053 22.6045C96.2293 25.1662 96.8137 27.4397 98.687 29.313C100.564 31.1903 102.834 31.7707 105.395 31.8947C107.605 32.0188 109.794 31.9988 112 31.9988C114.209 31.9988 116.399 32.0188 118.604 31.8947C121.166 31.7707 123.439 31.1863 125.312 29.313C127.19 27.4357 127.77 25.1662 127.894 22.6045C128.022 20.399 127.998 18.2095 127.998 16ZM111.996 24.2095C107.453 24.2095 103.786 20.5431 103.786 16C103.786 11.4569 107.453 7.79045 111.996 7.79045C116.539 7.79045 120.205 11.4569 120.205 16C120.205 20.5431 116.539 24.2095 111.996 24.2095ZM120.541 9.37152C119.481 9.37152 118.624 8.51494 118.624 7.45423C118.624 6.39351 119.481 5.53693 120.541 5.53693C121.602 5.53693 122.459 6.39351 122.459 7.45423C122.459 7.7061 122.41 7.95556 122.313 8.18832C122.217 8.42108 122.076 8.63256 121.898 8.81066C121.72 8.98876 121.508 9.12998 121.275 9.22622C121.043 9.32246 120.793 9.37184 120.541 9.37152Z" fill="#E1306C"/>
<path d="M74.6667 10.0417C73.8889 10.3889 73.0486 10.625 72.1458 10.75C73.0903 10.1944 73.7361 9.38194 74.0833 8.3125C73.1806 8.84028 72.25 9.19444 71.2917 9.375C70.4444 8.45833 69.3819 8 68.1042 8C66.8958 8 65.8646 8.42708 65.0104 9.28125C64.1562 10.1354 63.7292 11.1667 63.7292 12.375C63.7292 12.7778 63.7639 13.1111 63.8333 13.375C62.0417 13.2778 60.3611 12.8264 58.7917 12.0208C57.2222 11.2153 55.8889 10.1389 54.7917 8.79167C54.3889 9.48611 54.1875 10.2222 54.1875 11C54.1875 12.5833 54.8194 13.7986 56.0833 14.6458C55.4306 14.6319 54.7361 14.4514 54 14.1042V14.1458C54 15.1875 54.3472 16.1146 55.0417 16.9271C55.7361 17.7396 56.5903 18.2431 57.6042 18.4375C57.2014 18.5486 56.8472 18.6042 56.5417 18.6042C56.3611 18.6042 56.0903 18.5764 55.7292 18.5208C56.0208 19.3958 56.5382 20.1181 57.2812 20.6875C58.0243 21.2569 58.8681 21.5486 59.8125 21.5625C58.2014 22.8125 56.3889 23.4375 54.375 23.4375C54.0139 23.4375 53.6667 23.4167 53.3333 23.375C55.3889 24.6806 57.625 25.3333 60.0417 25.3333C61.5972 25.3333 63.0556 25.0868 64.4167 24.5938C65.7778 24.1007 66.9444 23.441 67.9167 22.6146C68.8889 21.7882 69.7257 20.8368 70.4271 19.7604C71.1285 18.684 71.6493 17.559 71.9896 16.3854C72.3299 15.2118 72.5 14.0417 72.5 12.875C72.5 12.625 72.4931 12.4375 72.4792 12.3125C73.3542 11.6875 74.0833 10.9306 74.6667 10.0417ZM80 6V26C80 27.6528 79.4132 29.066 78.2396 30.2396C77.066 31.4132 75.6528 32 74 32H54C52.3472 32 50.934 31.4132 49.7604 30.2396C48.5868 29.066 48 27.6528 48 26V6C48 4.34722 48.5868 2.93403 49.7604 1.76042C50.934 0.586806 52.3472 0 54 0H74C75.6528 0 77.066 0.586806 78.2396 1.76042C79.4132 2.93403 80 4.34722 80 6Z" fill="#1DA1F2"/>
</svg>
